# xmcd
#
# Track frame offsets: 
#        150
#        10708
#        30969
#        53333
#        71666
#        84021
#        101252
#        122001
#        138838
#        151026
#        170059
#        182026
#        197068
#        213673
#
# Disc length: 3147 seconds
#
# Revision: 0
# Processed by: cddbd v1.5.2PL0 Copyright (c) Steve Scherf et al.
# Submitted via: ExactAudioCopy v0.95b3
#
DISCID=a40c490e
DTITLE=Watermelon Slim - No Paid Holidays
DYEAR=2088
DGENRE=Blues
TTITLE0=Blues For Howard
TTITLE1=Archetypal Blues No. 2
TTITLE2=Call My Job
TTITLE3=Dad In The Distance
TTITLE4=You're The One I Need
TTITLE5=Bubba's Blues
TTITLE6=And When I Die
TTITLE7=Into The Sunset
TTITLE8=Gearzy's Boogie
TTITLE9=This Traveling Life
TTITLE10=Max The Baseball Clown
TTITLE11=The Bloody Burmese Blues
TTITLE12=I've Got A Toothache
TTITLE13=Everybody's Down On Me
EXTD=
EXTT0=
EXTT1=
EXTT2=
EXTT3=
EXTT4=
EXTT5=
EXTT6=
EXTT7=
EXTT8=
EXTT9=
EXTT10=
EXTT11=
EXTT12=
EXTT13=
PLAYORDER=
